<mxfile host="drawio-plugin" modified="2024-06-12T16:23:55.437Z" agent="5.0 (Macintosh; Intel Mac OS X 10_15_7) AppleWebKit/537.36 (KHTML, like Gecko) Chrome/104.0.5112.102 Safari/537.36" version="20.5.3" etag="V3aAsK_h_kmnK6ZWY_mb" type="embed"><diagram id="5IHmI_3BpE9FOhScSwfx" name="Страница 1"><mxGraphModel dx="702" dy="589" grid="1" gridSize="10" guides="1" tooltips="1" connect="1" arrows="1" fold="1" page="1" pageScale="1" pageWidth="1169" pageHeight="1654" math="0" shadow="0"><root><mxCell id="0"/><mxCell id="1" parent="0"/><mxCell id="54" style="edgeStyle=orthogonalEdgeStyle;rounded=0;orthogonalLoop=1;jettySize=auto;html=1;exitX=0.5;exitY=1;exitDx=0;exitDy=0;" edge="1" parent="1" source="2" target="53"><mxGeometry relative="1" as="geometry"/></mxCell><mxCell id="2" value="Logical expression" style="ellipse;whiteSpace=wrap;html=1;" parent="1" vertex="1"><mxGeometry x="660" y="210" width="90" height="50" as="geometry"/></mxCell><mxCell id="3" value="Literal" style="rounded=1;whiteSpace=wrap;html=1;" parent="1" vertex="1"><mxGeometry x="940" y="470" width="70" height="40" as="geometry"/></mxCell><mxCell id="4" value="Operator" style="rounded=1;whiteSpace=wrap;html=1;" parent="1" vertex="1"><mxGeometry x="860" y="470" width="70" height="40" as="geometry"/></mxCell><mxCell id="5" value="Identifier" style="rounded=1;whiteSpace=wrap;html=1;" parent="1" vertex="1"><mxGeometry x="760" y="470" width="90" height="40" as="geometry"/></mxCell><mxCell id="22" value="Where" style="ellipse;whiteSpace=wrap;html=1;" parent="1" vertex="1"><mxGeometry x="660" y="100" width="90" height="50" as="geometry"/></mxCell><mxCell id="29" value="" style="endArrow=classic;html=1;exitX=0.5;exitY=1;exitDx=0;exitDy=0;entryX=0.5;entryY=0;entryDx=0;entryDy=0;" parent="1" source="22" target="2" edge="1"><mxGeometry width="50" height="50" relative="1" as="geometry"><mxPoint x="480" y="240" as="sourcePoint"/><mxPoint x="530" y="190" as="targetPoint"/></mxGeometry></mxCell><mxCell id="47" style="edgeStyle=orthogonalEdgeStyle;rounded=0;orthogonalLoop=1;jettySize=auto;html=1;exitX=0;exitY=1;exitDx=0;exitDy=0;entryX=0.5;entryY=0;entryDx=0;entryDy=0;" edge="1" parent="1" source="36" target="5"><mxGeometry relative="1" as="geometry"/></mxCell><mxCell id="48" style="edgeStyle=orthogonalEdgeStyle;rounded=0;orthogonalLoop=1;jettySize=auto;html=1;exitX=0.5;exitY=1;exitDx=0;exitDy=0;entryX=0.5;entryY=0;entryDx=0;entryDy=0;" edge="1" parent="1" source="36" target="4"><mxGeometry relative="1" as="geometry"/></mxCell><mxCell id="49" style="edgeStyle=orthogonalEdgeStyle;rounded=0;orthogonalLoop=1;jettySize=auto;html=1;exitX=1;exitY=1;exitDx=0;exitDy=0;entryX=0.5;entryY=0;entryDx=0;entryDy=0;" edge="1" parent="1" source="36" target="3"><mxGeometry relative="1" as="geometry"/></mxCell><mxCell id="36" value="Binary&lt;br&gt;condition" style="ellipse;whiteSpace=wrap;html=1;" vertex="1" parent="1"><mxGeometry x="850" y="380" width="90" height="50" as="geometry"/></mxCell><mxCell id="51" style="edgeStyle=orthogonalEdgeStyle;rounded=0;orthogonalLoop=1;jettySize=auto;html=1;exitX=0.5;exitY=1;exitDx=0;exitDy=0;entryX=0.5;entryY=0;entryDx=0;entryDy=0;" edge="1" parent="1" source="40" target="50"><mxGeometry relative="1" as="geometry"/></mxCell><mxCell id="40" value="Left" style="ellipse;whiteSpace=wrap;html=1;" vertex="1" parent="1"><mxGeometry x="470" y="280" width="90" height="50" as="geometry"/></mxCell><mxCell id="41" value="Right" style="ellipse;whiteSpace=wrap;html=1;" vertex="1" parent="1"><mxGeometry x="850" y="280" width="90" height="50" as="geometry"/></mxCell><mxCell id="42" value="" style="endArrow=classic;html=1;rounded=0;exitX=0;exitY=1;exitDx=0;exitDy=0;entryX=0.5;entryY=0;entryDx=0;entryDy=0;" edge="1" parent="1" source="2" target="40"><mxGeometry width="50" height="50" relative="1" as="geometry"><mxPoint x="570" y="310" as="sourcePoint"/><mxPoint x="620" y="260" as="targetPoint"/></mxGeometry></mxCell><mxCell id="43" value="" style="endArrow=classic;html=1;rounded=0;exitX=1;exitY=1;exitDx=0;exitDy=0;entryX=0.5;entryY=0;entryDx=0;entryDy=0;" edge="1" parent="1" source="2" target="41"><mxGeometry width="50" height="50" relative="1" as="geometry"><mxPoint x="683.1801948466052" y="262.67766952966383" as="sourcePoint"/><mxPoint x="635" y="330" as="targetPoint"/></mxGeometry></mxCell><mxCell id="44" value="" style="endArrow=classic;html=1;rounded=0;exitX=0.5;exitY=1;exitDx=0;exitDy=0;entryX=0.5;entryY=0;entryDx=0;entryDy=0;" edge="1" parent="1" source="41" target="36"><mxGeometry width="50" height="50" relative="1" as="geometry"><mxPoint x="740" y="420" as="sourcePoint"/><mxPoint x="790" y="370" as="targetPoint"/></mxGeometry></mxCell><mxCell id="57" style="edgeStyle=orthogonalEdgeStyle;rounded=0;orthogonalLoop=1;jettySize=auto;html=1;exitX=0;exitY=1;exitDx=0;exitDy=0;entryX=0.5;entryY=0;entryDx=0;entryDy=0;" edge="1" parent="1" source="50" target="55"><mxGeometry relative="1" as="geometry"/></mxCell><mxCell id="58" style="edgeStyle=orthogonalEdgeStyle;rounded=0;orthogonalLoop=1;jettySize=auto;html=1;exitX=1;exitY=1;exitDx=0;exitDy=0;entryX=0.5;entryY=0;entryDx=0;entryDy=0;" edge="1" parent="1" source="50" target="56"><mxGeometry relative="1" as="geometry"/></mxCell><mxCell id="60" style="edgeStyle=orthogonalEdgeStyle;rounded=0;orthogonalLoop=1;jettySize=auto;html=1;exitX=0.5;exitY=1;exitDx=0;exitDy=0;entryX=0.5;entryY=0;entryDx=0;entryDy=0;" edge="1" parent="1" source="50" target="59"><mxGeometry relative="1" as="geometry"/></mxCell><mxCell id="50" value="Logical expression" style="ellipse;whiteSpace=wrap;html=1;" vertex="1" parent="1"><mxGeometry x="470" y="370" width="90" height="50" as="geometry"/></mxCell><mxCell id="53" value="Operator" style="rounded=1;whiteSpace=wrap;html=1;" vertex="1" parent="1"><mxGeometry x="670" y="285" width="70" height="40" as="geometry"/></mxCell><mxCell id="75" style="edgeStyle=orthogonalEdgeStyle;rounded=0;orthogonalLoop=1;jettySize=auto;html=1;exitX=0.5;exitY=1;exitDx=0;exitDy=0;" edge="1" parent="1" source="55" target="64"><mxGeometry relative="1" as="geometry"/></mxCell><mxCell id="55" value="Left" style="ellipse;whiteSpace=wrap;html=1;" vertex="1" parent="1"><mxGeometry x="350" y="465" width="90" height="50" as="geometry"/></mxCell><mxCell id="70" style="edgeStyle=orthogonalEdgeStyle;rounded=0;orthogonalLoop=1;jettySize=auto;html=1;exitX=0.5;exitY=1;exitDx=0;exitDy=0;entryX=0.5;entryY=0;entryDx=0;entryDy=0;" edge="1" parent="1" source="56" target="69"><mxGeometry relative="1" as="geometry"/></mxCell><mxCell id="56" value="Right" style="ellipse;whiteSpace=wrap;html=1;" vertex="1" parent="1"><mxGeometry x="580" y="470" width="90" height="50" as="geometry"/></mxCell><mxCell id="59" value="Operator" style="rounded=1;whiteSpace=wrap;html=1;" vertex="1" parent="1"><mxGeometry x="480" y="440" width="70" height="40" as="geometry"/></mxCell><mxCell id="61" value="Literal" style="rounded=1;whiteSpace=wrap;html=1;" vertex="1" parent="1"><mxGeometry x="370" y="650" width="70" height="40" as="geometry"/></mxCell><mxCell id="62" value="Operator" style="rounded=1;whiteSpace=wrap;html=1;" vertex="1" parent="1"><mxGeometry x="290" y="650" width="70" height="40" as="geometry"/></mxCell><mxCell id="63" value="Identifier" style="rounded=1;whiteSpace=wrap;html=1;" vertex="1" parent="1"><mxGeometry x="190" y="650" width="90" height="40" as="geometry"/></mxCell><mxCell id="66" style="edgeStyle=orthogonalEdgeStyle;rounded=0;orthogonalLoop=1;jettySize=auto;html=1;exitX=0;exitY=1;exitDx=0;exitDy=0;entryX=0.5;entryY=0;entryDx=0;entryDy=0;" edge="1" parent="1" source="64" target="63"><mxGeometry relative="1" as="geometry"/></mxCell><mxCell id="67" style="edgeStyle=orthogonalEdgeStyle;rounded=0;orthogonalLoop=1;jettySize=auto;html=1;exitX=0.5;exitY=1;exitDx=0;exitDy=0;entryX=0.5;entryY=0;entryDx=0;entryDy=0;" edge="1" parent="1" source="64" target="62"><mxGeometry relative="1" as="geometry"/></mxCell><mxCell id="68" style="edgeStyle=orthogonalEdgeStyle;rounded=0;orthogonalLoop=1;jettySize=auto;html=1;exitX=1;exitY=1;exitDx=0;exitDy=0;entryX=0.5;entryY=0;entryDx=0;entryDy=0;" edge="1" parent="1" source="64" target="61"><mxGeometry relative="1" as="geometry"/></mxCell><mxCell id="64" value="Binary&lt;br&gt;condition" style="ellipse;whiteSpace=wrap;html=1;" vertex="1" parent="1"><mxGeometry x="280" y="560" width="90" height="50" as="geometry"/></mxCell><mxCell id="72" style="edgeStyle=orthogonalEdgeStyle;rounded=0;orthogonalLoop=1;jettySize=auto;html=1;exitX=0.5;exitY=1;exitDx=0;exitDy=0;entryX=0.5;entryY=0;entryDx=0;entryDy=0;" edge="1" parent="1" source="69" target="71"><mxGeometry relative="1" as="geometry"/></mxCell><mxCell id="78" style="edgeStyle=orthogonalEdgeStyle;rounded=0;orthogonalLoop=1;jettySize=auto;html=1;exitX=0;exitY=1;exitDx=0;exitDy=0;entryX=0.5;entryY=0;entryDx=0;entryDy=0;" edge="1" parent="1" source="69" target="76"><mxGeometry relative="1" as="geometry"/></mxCell><mxCell id="79" style="edgeStyle=orthogonalEdgeStyle;rounded=0;orthogonalLoop=1;jettySize=auto;html=1;exitX=1;exitY=1;exitDx=0;exitDy=0;entryX=0.5;entryY=0;entryDx=0;entryDy=0;" edge="1" parent="1" source="69" target="77"><mxGeometry relative="1" as="geometry"/></mxCell><mxCell id="69" value="Logical expression" style="ellipse;whiteSpace=wrap;html=1;" vertex="1" parent="1"><mxGeometry x="580" y="550" width="90" height="50" as="geometry"/></mxCell><mxCell id="71" value="Operator" style="rounded=1;whiteSpace=wrap;html=1;" vertex="1" parent="1"><mxGeometry x="590" y="625" width="70" height="40" as="geometry"/></mxCell><mxCell id="81" style="edgeStyle=orthogonalEdgeStyle;rounded=0;orthogonalLoop=1;jettySize=auto;html=1;exitX=0.5;exitY=1;exitDx=0;exitDy=0;" edge="1" parent="1" source="76" target="80"><mxGeometry relative="1" as="geometry"/></mxCell><mxCell id="76" value="Left" style="ellipse;whiteSpace=wrap;html=1;" vertex="1" parent="1"><mxGeometry x="480" y="620" width="90" height="50" as="geometry"/></mxCell><mxCell id="95" style="edgeStyle=orthogonalEdgeStyle;rounded=0;orthogonalLoop=1;jettySize=auto;html=1;exitX=0.5;exitY=1;exitDx=0;exitDy=0;entryX=0.5;entryY=0;entryDx=0;entryDy=0;" edge="1" parent="1" source="77" target="94"><mxGeometry relative="1" as="geometry"/></mxCell><mxCell id="77" value="Right" style="ellipse;whiteSpace=wrap;html=1;" vertex="1" parent="1"><mxGeometry x="690" y="625" width="90" height="50" as="geometry"/></mxCell><mxCell id="85" style="edgeStyle=orthogonalEdgeStyle;rounded=0;orthogonalLoop=1;jettySize=auto;html=1;exitX=0;exitY=1;exitDx=0;exitDy=0;entryX=0.5;entryY=0;entryDx=0;entryDy=0;" edge="1" parent="1" source="80" target="82"><mxGeometry relative="1" as="geometry"/></mxCell><mxCell id="86" style="edgeStyle=orthogonalEdgeStyle;rounded=0;orthogonalLoop=1;jettySize=auto;html=1;exitX=0.5;exitY=1;exitDx=0;exitDy=0;entryX=0.5;entryY=0;entryDx=0;entryDy=0;" edge="1" parent="1" source="80" target="83"><mxGeometry relative="1" as="geometry"/></mxCell><mxCell id="87" style="edgeStyle=orthogonalEdgeStyle;rounded=0;orthogonalLoop=1;jettySize=auto;html=1;exitX=1;exitY=1;exitDx=0;exitDy=0;entryX=0.5;entryY=0;entryDx=0;entryDy=0;" edge="1" parent="1" source="80" target="84"><mxGeometry relative="1" as="geometry"/></mxCell><mxCell id="80" value="Logical expression" style="ellipse;whiteSpace=wrap;html=1;" vertex="1" parent="1"><mxGeometry x="440" y="720" width="90" height="50" as="geometry"/></mxCell><mxCell id="90" style="edgeStyle=orthogonalEdgeStyle;rounded=0;orthogonalLoop=1;jettySize=auto;html=1;exitX=0.5;exitY=1;exitDx=0;exitDy=0;entryX=0.5;entryY=0;entryDx=0;entryDy=0;" edge="1" parent="1" source="82" target="88"><mxGeometry relative="1" as="geometry"/></mxCell><mxCell id="82" value="Left" style="ellipse;whiteSpace=wrap;html=1;" vertex="1" parent="1"><mxGeometry x="330" y="795" width="90" height="50" as="geometry"/></mxCell><mxCell id="83" value="Operator" style="rounded=1;whiteSpace=wrap;html=1;" vertex="1" parent="1"><mxGeometry x="450" y="800" width="70" height="40" as="geometry"/></mxCell><mxCell id="92" style="edgeStyle=orthogonalEdgeStyle;rounded=0;orthogonalLoop=1;jettySize=auto;html=1;exitX=0.5;exitY=1;exitDx=0;exitDy=0;" edge="1" parent="1" source="84" target="89"><mxGeometry relative="1" as="geometry"/></mxCell><mxCell id="84" value="Right" style="ellipse;whiteSpace=wrap;html=1;" vertex="1" parent="1"><mxGeometry x="550" y="795" width="90" height="50" as="geometry"/></mxCell><mxCell id="102" style="edgeStyle=orthogonalEdgeStyle;rounded=0;orthogonalLoop=1;jettySize=auto;html=1;exitX=0;exitY=1;exitDx=0;exitDy=0;entryX=0.5;entryY=0;entryDx=0;entryDy=0;" edge="1" parent="1" source="88" target="98"><mxGeometry relative="1" as="geometry"/></mxCell><mxCell id="103" style="edgeStyle=orthogonalEdgeStyle;rounded=0;orthogonalLoop=1;jettySize=auto;html=1;exitX=0.5;exitY=1;exitDx=0;exitDy=0;entryX=0.5;entryY=0;entryDx=0;entryDy=0;" edge="1" parent="1" source="88" target="97"><mxGeometry relative="1" as="geometry"/></mxCell><mxCell id="104" style="edgeStyle=orthogonalEdgeStyle;rounded=0;orthogonalLoop=1;jettySize=auto;html=1;exitX=1;exitY=1;exitDx=0;exitDy=0;" edge="1" parent="1" source="88" target="96"><mxGeometry relative="1" as="geometry"/></mxCell><mxCell id="88" value="Binary&lt;br&gt;condition" style="ellipse;whiteSpace=wrap;html=1;" vertex="1" parent="1"><mxGeometry x="330" y="870" width="90" height="50" as="geometry"/></mxCell><mxCell id="105" style="edgeStyle=orthogonalEdgeStyle;rounded=0;orthogonalLoop=1;jettySize=auto;html=1;exitX=0;exitY=1;exitDx=0;exitDy=0;" edge="1" parent="1" source="89" target="101"><mxGeometry relative="1" as="geometry"/></mxCell><mxCell id="106" style="edgeStyle=orthogonalEdgeStyle;rounded=0;orthogonalLoop=1;jettySize=auto;html=1;exitX=0.5;exitY=1;exitDx=0;exitDy=0;" edge="1" parent="1" source="89" target="100"><mxGeometry relative="1" as="geometry"/></mxCell><mxCell id="107" style="edgeStyle=orthogonalEdgeStyle;rounded=0;orthogonalLoop=1;jettySize=auto;html=1;exitX=1;exitY=1;exitDx=0;exitDy=0;entryX=0.4;entryY=-0.075;entryDx=0;entryDy=0;entryPerimeter=0;" edge="1" parent="1" source="89" target="99"><mxGeometry relative="1" as="geometry"/></mxCell><mxCell id="89" value="Binary&lt;br&gt;condition" style="ellipse;whiteSpace=wrap;html=1;" vertex="1" parent="1"><mxGeometry x="550" y="870" width="90" height="50" as="geometry"/></mxCell><mxCell id="94" value="Binary&lt;br&gt;condition" style="ellipse;whiteSpace=wrap;html=1;" vertex="1" parent="1"><mxGeometry x="690" y="720" width="90" height="50" as="geometry"/></mxCell><mxCell id="96" value="Literal" style="rounded=1;whiteSpace=wrap;html=1;" vertex="1" parent="1"><mxGeometry x="420" y="960" width="70" height="40" as="geometry"/></mxCell><mxCell id="97" value="Operator" style="rounded=1;whiteSpace=wrap;html=1;" vertex="1" parent="1"><mxGeometry x="340" y="960" width="70" height="40" as="geometry"/></mxCell><mxCell id="98" value="Identifier" style="rounded=1;whiteSpace=wrap;html=1;" vertex="1" parent="1"><mxGeometry x="240" y="960" width="90" height="40" as="geometry"/></mxCell><mxCell id="99" value="Literal" style="rounded=1;whiteSpace=wrap;html=1;" vertex="1" parent="1"><mxGeometry x="640" y="1020" width="70" height="40" as="geometry"/></mxCell><mxCell id="100" value="Operator" style="rounded=1;whiteSpace=wrap;html=1;" vertex="1" parent="1"><mxGeometry x="560" y="1020" width="70" height="40" as="geometry"/></mxCell><mxCell id="101" value="Identifier" style="rounded=1;whiteSpace=wrap;html=1;" vertex="1" parent="1"><mxGeometry x="460" y="1020" width="90" height="40" as="geometry"/></mxCell><mxCell id="109" value="&lt;p style=&quot;line-height: 120%; font-size: 15px;&quot;&gt;where linecount &amp;gt; 100 or (daratio &amp;lt;= 0.5 or maauthor == &quot;mogryo&quot; or maauthor == &quot;woohoo&quot;) and daratio &amp;gt; 0.2&lt;/p&gt;" style="text;html=1;align=center;verticalAlign=middle;resizable=0;points=[];autosize=1;strokeColor=none;fillColor=none;" vertex="1" parent="1"><mxGeometry x="25" y="20" width="760" height="60" as="geometry"/></mxCell></root></mxGraphModel></diagram></mxfile>